<?xml version="1.0" encoding="utf-8"?>
<!-- Generator: Adobe Illustrator 17.0.0, SVG Export Plug-In . SVG Version: 6.00 Build 0)  -->
<!DOCTYPE svg PUBLIC "-//W3C//DTD SVG 1.1//EN" "http://www.w3.org/Graphics/SVG/1.1/DTD/svg11.dtd">
<svg version="1.1" id="Layer_1" xmlns="http://www.w3.org/2000/svg" xmlns:xlink="http://www.w3.org/1999/xlink" x="0px" y="0px"
	 width="85px" height="75px" viewBox="0 0 85 75" enable-background="new 0 0 85 75" xml:space="preserve">
<g>
	<path fill-rule="evenodd" clip-rule="evenodd" fill="#eaf0dc" d="M34.098,0.459c1.655,4.168,0.916,6.1-1.926,8.094
		c-4.95,3.472-9.819,7.217-14.061,11.502c-4.862,4.911-6.576,11.253-5.083,18.14c0.948,4.374,3.181,5.358,7.58,4.548
		c3.576-0.659,7.418-1.476,10.874-0.816c5.3,1.009,8.652,5.024,9.627,10.323c1.044,5.672-0.166,10.821-5.121,14.604
		C23.483,76.399,4.554,68.419,0.954,51.601c-3.609-16.856,3.041-30.356,15.867-40.832C21.882,6.635,28.13,3.954,34.098,0.459z"/>
	<path fill-rule="evenodd" clip-rule="evenodd" fill="#eaf0dc" d="M77.995,0.994c1.324,3.396,0.152,5.223-2.57,7.158
		c-4.928,3.505-9.807,7.242-14.01,11.56c-4.817,4.949-6.427,11.308-4.885,18.194c0.878,3.919,3.33,5.302,7.317,4.331
		c2.988-0.727,6.159-1.79,9.092-1.431c5.908,0.726,9.875,4.457,11.524,10.233c1.668,5.839-0.496,11.893-5.215,15.425
		c-12.429,9.304-30.816,1.326-34.876-15.157c-2.187-8.88-0.71-17.357,3.192-25.449C53.333,13.899,65.312,4.126,77.995,0.994z"/>
</g>
</svg>
